name processed_emg_signals
nRows=90
nColumns=7
 
endheader
time	LGLTMED	LRF	LADDLONG	LST	LTA	LGM
0.64	0.0248075496403105	0.0490670327341017	0.0318612273641759	0.1221860820997991	0.1557358004262049	0.0340640516066376
0.641	0.0247977103975477	0.0489436810962383	0.031402697684262	0.1292420781202662	0.1550938805078092	0.0338510498813739
0.642	0.0247971033279602	0.0488145821556156	0.0309696660222486	0.1364594804244476	0.1545035520441256	0.0336413431473049
0.643	0.0248060021784191	0.048679854921314	0.0305618382316067	0.1438359033883843	0.1539653796266276	0.0334351960857252
0.644	0.024824682331962	0.0485396275241497	0.0301788968546271	0.1513687525383699	0.1534799630224757	0.0332328726624897
0.645	0.0248534206153786	0.0483940372562377	0.0298205021230467	0.1590552240718963	0.1530479382276674	0.0330346359188453
0.646	0.0248924950969048	0.048243230602934	0.0294862929771497	0.1668923046636282	0.1526699783603516	0.0328407477651519
0.647	0.0249421848745446	0.0480873632672348	0.0291758881014575	0.1748767715618856	0.1523467943894531	0.0326514687778167
0.648	0.0250027698555321	0.0479266001865703	0.0288888869751805	0.1830051929805372	0.1520791356945369	0.0324670579996814
0.649	0.0250745305274587	0.0477611155420188	0.0286248709355855	0.1912739287906841	0.151867790453703	0.0322877727440285
0.65	0.0251577477215455	0.047591092759868	0.028383404252377	0.1996791315159255	0.1517135858571116	0.032113868402356
0.651	0.0252527023685039	0.0474167245055559	0.0281640352111646	0.208216747634415	0.1516173881441449	0.0319455982559683
0.652	0.0253596752473959	0.0472382126699716	0.0279662972040469	0.216882519190471	0.1515801024627103	0.0317832132913745
0.653	0.025478946727869	0.047055768348121	0.0277897098251842	0.2256719857178527	0.1516026725494381	0.0316269620194986
0.654	0.0256107965061177	0.0468696118100664	0.0276337799691961	0.2345804864764463	0.1516860802297825	0.0314770902985801
0.655	0.0257555033348518	0.0466799724640044	0.0274980029301616	0.2436031630034618	0.1518313447373647	0.0313338411607084
0.656	0.0259133447475939	0.0464870888112137	0.0273818634988396	0.2527349619797295	0.1520395218520728	0.0311974546418674
0.657	0.0260845967775315	0.0462912083926502	0.0272848370557238	0.2619706384110583	0.152311702857018	0.0310681676153356
0.658	0.0262695336712213	0.0460925877268325	0.0272063906574483	0.2713047591239291	0.1526490133151709	0.0309462136284541
0.659	0.0264684275974509	0.0458914922387455	0.0271459841140393	0.2807317065742192	0.1530526116673982	0.0308318227426691
0.66	0.026681548351616	0.0456881961794502	0.027103071054512	0.2902456829669763	0.1535236876546707	0.0307252213769571
0.661	0.0269091630560747	0.0454829825361231	0.0270770999783507	0.2998407146847828	0.1540634605682699	0.0306266321546303
0.662	0.0271515358569767	0.0452761429321448	0.0270675152905653	0.3095106570217386	0.1546731773334398	0.0305362737535662
0.663	0.0274089276181922	0.0450679775167989	0.0270737583181812	0.3192491992195407	0.1553541104336337	0.0304543607598666
0.664	0.0276815956129076	0.0448587948440443	0.0270952683062175	0.3290498698016083	0.1561075556841075	0.0303811035248665
0.665	0.0279697932135775	0.0446489117396636	0.0271314833913495	0.3389060422004321	0.1569348298646484	0.0303167080253615
0.666	0.0282737695808917	0.0444386531561723	0.0271818415516572	0.3488109406727173	0.1578372682217813	0.0302613757268732
0.667	0.0285937693523766	0.0442283520148217	0.0272457815309283	0.3587576464960544	0.1588162218506665	0.0302153034497571
0.668	0.0289300323313864	0.0440183490341413	0.0273227437362213	0.3687391044403673	0.1598730549669617	0.0301786832379055
0.669	0.0292827931770873	0.0438089925445188	0.0274121711075051	0.3787481295068238	0.1610091420786465	0.0301517022298678
0.67	0.0296522810962334	0.0436006382883791	0.0275135099584368	0.3887774139265524	0.1622258650678083	0.0301345425321972
0.671	0.0300387195374324	0.0433936492055658	0.0276262107874689	0.3988195344109851	0.1635246101922678	0.0301273810948379
0.672	0.030442325888656	0.0431883952036525	0.0277497290587203	0.4088669596448808	0.1649067650168121	0.0301303895883775
0.673	0.030863311178769	0.0429852529129678	0.0278835259521201	0.4189120580120966	0.166373715283786	0.0301437342829528
0.674	0.0313018797838598	0.0427846054263063	0.0280270690825531	0.4289471055430955	0.1679268417326139	0.0301675759286281
0.675	0.0317582291392281	0.0425868420233756	0.0281798331876743	0.4389642940723287	0.1695675168776841	0.0302020696371473
0.676	0.0322325494579585	0.0423923578801581	0.0283413007842323	0.4489557395931297	0.1712971017537126	0.0302473647649468
0.677	0.0327250234571115	0.0422015537634059	0.028510962792739	0.4589134907972006	0.1731169426373776	0.0303036047974499
0.678	0.0332358260926039	0.0420148357105688	0.0286883191303089	0.4688295377853251	0.1750283677535456	0.0303709272346936
0.679	0.033765124303925	0.0418326146955142	0.028872879271584	0.4786958209352819	0.177032683974037	0.0304494634783488
0.68	0.0343130767698238	0.0416553062803259	0.0290641627776751	0.488504239912262	0.1791311735163986	0.0305393387202068
0.681	0.0348798336760678	0.0414833302535359	0.0292616997931073	0.4982466628063952	0.1813250906496821	0.0306406718321814
0.682	0.0354655364963589	0.0413171102550186	0.0294650315108805	0.5079149353811652	0.1836156584138414	0.0307535752578847
0.683	0.0360703177874374	0.0411570733878956	0.0296737106058028	0.5175008904161601	0.1860040653588062	0.0308781549057467
0.684	0.0366943009992964	0.0410036498177087	0.0298873016362992	0.526996357127254	0.1884914623088116	0.0310145100436338
0.685	0.0373376003015185	0.0408572723592697	0.030105381414934	0.5363931706473604	0.191078959157094	0.0311627331948781
0.686	0.0380003204265626	0.0407183760515837	0.0303275393478732	0.545683181550802	0.193767621695564	0.0313229100355652
0.687	0.0386825565309235	0.0405873977212482	0.0305533777435422	0.5548582654046911	0.1965584684837469	0.0314951192928929
0.6880000000000001	0.0393843940749391	0.0404647755348114	0.0307825120907425	0.5639103323316311	0.1994524677608562	0.031679432644474
0.6890000000000001	0.0401059087219804	0.0403509485405048	0.0310145713064371	0.5728313365694206	0.2024505344045445	0.0318759146184807
0.6900000000000001	0.0408471662576729	0.0402463561999491	0.0312491979534672	0.5816132860149477	0.2055535269395848	0.0320846224946022
0.6910000000000001	0.0416082225296493	0.0401514379104236	0.0314860484284667	0.5902482517412785	0.2087622445994762	0.0323056062059319
0.6920000000000001	0.0423891234083696	0.0400666325184135	0.0317247931202147	0.5987283774786726	0.2120774244437134	0.0325389082419218
0.6930000000000001	0.0431899047693509	0.0399923778252754	0.0319651165386961	0.6070458890517845	0.2154997385333101	0.0327845635526629
0.6940000000000001	0.0440105924972509	0.0399291100858648	0.0322067174150609	0.6151931037663202	0.2190297911669408	0.0330425994546889
0.6950000000000001	0.0448512025120579	0.0398772635010014	0.0324493087726838	0.6231624397394832	0.2226681161799788	0.033313035538543
0.6960000000000001	0.0457117408176859	0.0398372697046195	0.0326926179694469	0.6309464251694009	0.2264151743086265	0.0335958835782834
0.6970000000000001	0.0465922035730707	0.039809557246478	0.0329363867113258	0.6385377075395062	0.2302713506213475	0.0338911474430596
0.6980000000000001	0.047492577185915	0.0397945510712747	0.0331803710374315	0.6459290627542578	0.2342369520196403	0.0341988230108739
0.6990000000000001	0.0484128384290344	0.0397926719951154	0.0334243412766534	0.6531134042029553	0.2383122048101858	0.0345188980845236
0.7000000000000001	0.0493529545793187	0.0398043361803431	0.0336680819762629	0.6600837917485198	0.2424972523500935	0.034851352309711
0.7010000000000001	0.0503128835790826	0.0398299546097948	0.03391139180284	0.6668334406378578	0.2467921527670195	0.0351961570953196
0.7020000000000001	0.0512925742196124	0.0398699325616136	0.0341540834160263	0.6733557303295699	0.2511968767556579	0.0355532755357927
0.7030000000000001	0.0522919663465024	0.0399246690857198	0.034395983315759	0.6796442132334657	0.2557113054523045	0.0359226623356271
0.704	0.053310991086333	0.0399945564830272	0.0346369316637528	0.6856926233547959	0.26033522838895	0.0363042637358737
0.705	0.0543495710942389	0.0400799797884463	0.0348767820801831	0.6914948848345123	0.2650683415285666	0.0366980174425736
0.706	0.055407620821821	0.0401813162585619	0.0351154014166145	0.6970451203750947	0.2699102453829508	0.0371038525568861
0.707	0.0564850468049235	0.0402989348647935	0.0353526695063359	0.7023376595398221	0.2748604432145394	0.0375216895067222
0.708	0.0575817479707023	0.0404331957927364	0.0355884788932051	0.7073670469117392	0.2799183393232668	0.0379514399796098
0.709	0.0586976159634054	0.0405844499483076	0.0358227345402168	0.7121280500976197	0.2850832374195728	0.038393006856633
0.71	0.0598325354881812	0.0407530384711751	0.0360553535188909	0.7166156675619165	0.2903543390846911	0.0388462841473154
0.711	0.0609863846721344	0.0409392922559797	0.0362862646807097	0.720825136275771	0.2957307423194414	0.0393111569254596
0.712	0.0621590354416959	0.0411435314816503	0.0365154083116415	0.7247519391665391	0.3012114401826132	0.0397875012660465
0.713	0.0633503539153116	0.0413660651491597	0.036742735770891	0.7283918123536848	0.3067953195200381	0.0402751841833522
0.714	0.064560200810195	0.0416071906279765	0.0369682091149274	0.7317407521572808	0.3124811597856838	0.040774063570611
0.715	0.0657884318619146	0.0418671932113301	0.0371918007079001	0.7347950218651804	0.3182676319570221	0.0412839881415245
0.716	0.0670348982553632	0.0421463456804387	0.0374134928195244	0.7375511582440446	0.3241532975478745	0.04180479737403
0.717	0.0682994470656513	0.042444907877662	0.0376332772116315	0.7400059777785909	0.3301366077227561	0.0423363214567328
0.718	0.0695819217072936	0.0427631262885399	0.037851154714538	0.7421565826227486	0.3362159025171647	0.0428783812383512
0.719	0.0708821623899786	0.0431012336326103	0.0380671347944194	0.7440003662460005	0.3423894101684815	0.0434307881805111
0.72	0.0722000065790213	0.0434594484628629	0.0382812351128687	0.7455350187573424	0.3486552465621146	0.0439933443142373
0.721	0.0735352894585046	0.0438379747736965	0.0384934810798197	0.7467585318885434	0.3550114147973054	0.0445658422003419
0.722	0.0748878443949732	0.0442370016174783	0.0387039054009729	0.7476692036178691	0.3614558048767635	0.045148064894012
0.723	0.0762575033993915	0.0446567027299006	0.0389125476210373	0.7482656424155011	0.3679861935238476	0.0457397859137248
0.724	0.0776440975849947	0.0450972361645351	0.0391194536640362	0.7485467710924057	0.3746002441307534	0.0463407692147989
0.725	0.0790474576184375	0.0455587439371251	0.0393246753721316	0.7485118302349498	0.3812955068412874	0.0469507691678713
0.726	0.0804674141614688	0.0460413516802089	0.0395282700443146	0.7481603812082931	0.3880694187719434	0.0475695305427251
0.727	0.0819037983001892	0.0465451683087441	0.0397302999763241	0.7474923087124999	0.3949193043754708	0.0481967884979915
0.728	0.0833564419586805	0.0470702856973215	0.0399308320030801	0.7465078228760074	0.4018423759514223	0.0488322685772076
0.729	0.0848251782936312	0.0476167783694927	0.0401299370448009	0.7452074608716381	0.4088357343083453	0.0494756867118968
